<svg xmlns="http://www.w3.org/2000/svg" width="139.533" height="44.288" viewBox="0 0 139.533 44.288">
  <g id="Grupo_6958" data-name="Grupo 6958" transform="translate(0 0.762)">
    <g id="Grupo_1996" data-name="Grupo 1996" transform="translate(53.029 11.17)">
      <g id="Grupo_1995" data-name="Grupo 1995">
        <g id="Grupo_1994-2" data-name="Grupo 1994-2">
          <path id="Trazado_11" data-name="Trazado 11" d="M161.418,37.715a2.847,2.847,0,0,0,1.153-2.833,3.161,3.161,0,0,0-3.164.271,7.461,7.461,0,0,0-2.178,3.559A7.9,7.9,0,0,0,161.418,37.715Z" transform="translate(-139.773 -34.168)" fill="#fff"/>
          <path id="Trazado_12" data-name="Trazado 12" d="M142.26,53.39l-.093.051a10.837,10.837,0,0,1-5.713,1.617c-5.434,0-9.088-3.719-9.088-9.256a9.306,9.306,0,0,1,9.048-9.556c.214-.006.429,0,.643,0a10.419,10.419,0,0,1,4.737,1.039l.063.036V37.4l-.058,2.758v.213l-.18-.121a8.243,8.243,0,0,0-4.53-1.3c-4.379,0-6.343,3.335-6.343,6.637,0,3.992,2.469,6.675,6.145,6.675a8.837,8.837,0,0,0,4.316-1.166l.121-.073.048.134L142.2,53.3Zm13.272.458s.077-2.157.077-3.43V45.336c0-3.608-2.11-4.934-5.276-4.934a8.653,8.653,0,0,0-5.252,1.609l1.039,1.965a6.365,6.365,0,0,1,3.605-1.112,2.419,2.419,0,0,1,2.757,2.639v.41l-2.6.089c-3.579.15-5.713,1.73-5.713,4.57a4.82,4.82,0,0,0,.265,1.56,4.66,4.66,0,0,0,4.446,2.806,24.554,24.554,0,0,0,6.654-1.09ZM152.607,52a7.293,7.293,0,0,1-3.075.555,2.178,2.178,0,0,1-2.279-2.072V50.33c0-1.293.909-2.03,2.992-2.076l2.363-.095Zm15.537-17.453a1.907,1.907,0,1,0,1.936,1.907,1.885,1.885,0,0,0-1.863-1.907h-.073Zm1.522,20.085V40.769h-3.049V54.636Zm15.219-.79V33.876h-3.053v6.716a10.706,10.706,0,0,0-1.936-.182,7.236,7.236,0,0,0-7.5,6.96v0c-.008.154-.008.306,0,.459,0,4.719,3.345,7.1,7.424,7.1a10.822,10.822,0,0,0,5.068-1.089Zm-3.053-1.731a5.554,5.554,0,0,1-1.694.259,4.375,4.375,0,0,1-4.677-4.051,4.32,4.32,0,0,1,0-.668,4.431,4.431,0,0,1,4.122-4.72,4.514,4.514,0,0,1,.454-.007,5.592,5.592,0,0,1,1.815.234ZM199.7,53.846V33.876h-3.048v6.716a10.7,10.7,0,0,0-1.936-.182,7.244,7.244,0,0,0-7.515,6.962v0c0,.153-.008.306,0,.457,0,4.719,3.344,7.1,7.421,7.1a10.854,10.854,0,0,0,5.076-1.089Zm-3.048-1.731a5.586,5.586,0,0,1-1.694.259,4.376,4.376,0,0,1-4.677-4.719,4.427,4.427,0,0,1,4.115-4.719,4.281,4.281,0,0,1,.458-.008,5.7,5.7,0,0,1,1.822.234Zm17.142,1.731s.072-2.157.072-3.427V45.337c0-3.61-2.11-4.934-5.273-4.934a8.651,8.651,0,0,0-5.231,1.609l1.039,1.963a6.413,6.413,0,0,1,3.611-1.112,2.42,2.42,0,0,1,2.756,2.64v.41l-2.6.089c-3.58.15-5.713,1.728-5.713,4.57a4.719,4.719,0,0,0,.265,1.559,4.654,4.654,0,0,0,4.449,2.806,24.47,24.47,0,0,0,6.622-1.1ZM210.869,52a7.254,7.254,0,0,1-3.082.557,2.179,2.179,0,0,1-2.255-2.1v-.128c0-1.294.909-2.03,2.992-2.077l2.363-.095Zm-46.946,2.311-.384-2.255a3.177,3.177,0,0,1-.915.113c-.759,0-1-.353-1-1.465V33.876h-3.051v18.18a2.626,2.626,0,0,0,2.9,2.9,4.954,4.954,0,0,0,2.444-.643Z" transform="translate(-127.362 -33.876)" fill="#fff"/>
        </g>
      </g>
    </g>
    <g id="Grupo_5447" data-name="Grupo 5447">
      <path id="Exclusión_2" data-name="Exclusión 2" d="M-9901.518-4947a9.245,9.245,0,0,1-7.076-3.608,12.293,12.293,0,0,1,1.212-2.48,9.939,9.939,0,0,0,6.795-3.971c.217-.013.438-.019.659-.019a25.729,25.729,0,0,1,10.756,2.909c-1.936,2.465-6.93,6.323-10.665,7.011A9.4,9.4,0,0,1-9901.518-4947Zm-7.875-5.949h0c-.469,0-.978-.023-1.511-.07a15.78,15.78,0,0,1-1.168-3.129,8.4,8.4,0,0,0,1.531-6.7,8.986,8.986,0,0,0-.334-1.257c.088-.139.175-.272.259-.4a19.63,19.63,0,0,1,6.051-5.126,27.552,27.552,0,0,1,7.11-3.06,30.786,30.786,0,0,1-.316,7.728,19.688,19.688,0,0,1-2.537,7.512c-.087.127-.178.255-.276.389a8.524,8.524,0,0,0-1.048.122,8.421,8.421,0,0,0-5.747,3.849A14.09,14.09,0,0,1-9909.393-4952.947Zm-4.6-1.146h0c-3.595-1.307-5.724-3.649-6.326-6.961a16.539,16.539,0,0,1,.493-6.525,23.1,23.1,0,0,1,2.268-5.933,25.258,25.258,0,0,1,6.683,9.409,9.926,9.926,0,0,0-1.2,7.958,12.333,12.333,0,0,1-1.919,2.053Z" transform="translate(9933.076 4973.513)" fill="#fff" stroke="rgba(0,0,0,0)" stroke-miterlimit="10" stroke-width="1"/>
      <path id="Trazado_3197" data-name="Trazado 3197" d="M43.875,43.582a7.017,7.017,0,0,0,7.354.325,7.047,7.047,0,0,0-2.954-6.751c-2.379-1.637-7.253-2.215-9.793-1.983C39.115,37.683,41.486,41.945,43.875,43.582Z" transform="translate(-37.398 -23.224)" fill="#fff"/>
      <path id="Trazado_3198" data-name="Trazado 3198" d="M43.5,60.8a4.917,4.917,0,0,0,3.848-3.468,4.923,4.923,0,0,0-4.81-1.92c-2,.363-4.734,2.465-5.907,3.836A12.419,12.419,0,0,0,43.5,60.8Z" transform="translate(-36.627 -31.62)" fill="#fff"/>
      <path id="Trazado_3200" data-name="Trazado 3200" d="M82.509,69.045a7.018,7.018,0,0,1-3.185-6.637,7,7,0,0,1,7.363.076c2.438,1.557,4.907,5.8,5.666,8.227C89.792,71.1,84.944,70.6,82.509,69.045Z" transform="translate(-54.367 -34.143)" fill="#fff"/>
      <path id="Trazado_3201" data-name="Trazado 3201" d="M70.366,76.315a4.8,4.8,0,0,1,1.688-4.751,4.83,4.83,0,0,1,3.523,3.608c.426,1.919-.451,5.172-1.266,6.721A12,12,0,0,1,70.366,76.315Z" transform="translate(-50.599 -38.367)" fill="#fff"/>
      <path id="Trazado_3202" data-name="Trazado 3202" d="M56.217,75.258a3.929,3.929,0,0,0,.16-4.113,3.926,3.926,0,0,0-3.763,1.687,10.157,10.157,0,0,0-1.081,5.485A10.089,10.089,0,0,0,56.217,75.258Z" transform="translate(-42.808 -38.188)" fill="#fff"/>
    </g>
  </g>
</svg>
