<svg id="Grupo_16918" data-name="Grupo 16918" xmlns="http://www.w3.org/2000/svg" width="130.421" height="26.247" viewBox="0 0 130.421 26.247">
  <g id="Grupo_16917" data-name="Grupo 16917">
    <path id="Trazado_9180" data-name="Trazado 9180" d="M380.173,96.312l-14.912,1.394a1.491,1.491,0,0,1-1.49-1.491V85.763a2.461,2.461,0,0,0,1.49.51l14.912-1.394v3.479h.994V84.382a.5.5,0,0,0-.5-.5l-15.409,1.394a1.491,1.491,0,0,1,0-2.982h.5V81.3h-.5a2.488,2.488,0,0,0-2.485,2.485V96.215a2.489,2.489,0,0,0,2.485,2.485l15.409-1.394a.5.5,0,0,0,.5-.5V95.318h-.994Z" transform="translate(-362.776 -72.453)" fill="#fff"/>
    <path id="Trazado_9181" data-name="Trazado 9181" d="M386.1,86.892v.994a1.491,1.491,0,1,1,0,2.982h-4.474a2.485,2.485,0,1,0,0,4.971H386.1a2.487,2.487,0,0,0,2.485-2.485V89.377A2.488,2.488,0,0,0,386.1,86.892Zm1.491,6.462a1.491,1.491,0,0,1-1.491,1.491h-4.474a1.491,1.491,0,0,1,0-2.982H386.1a2.472,2.472,0,0,0,1.491-.5Z" transform="translate(-367.215 -73.969)" fill="#fff"/>
    <path id="Trazado_9182" data-name="Trazado 9182" d="M366.407,81.344,376,70.361l7.25,7.25-1.637,1.637.7.7,1.988-1.988a.5.5,0,0,0,0-.7l-7.952-7.953a.5.5,0,0,0-.7,0L365.7,80.641Z" transform="translate(-363.57 -69.16)" fill="#fff"/>
    <path id="Trazado_9183" data-name="Trazado 9183" d="M369.226,70.154h5.468V69.16h-5.965a.5.5,0,0,0-.5.5v5.965h.994Z" transform="translate(-364.256 -69.16)" fill="#fff"/>
    <path id="Trazado_9184" data-name="Trazado 9184" d="M380.014,74.361a.5.5,0,0,0-.352-.146h0a.5.5,0,0,0-.351.146.5.5,0,0,1-.7,0h0a.5.5,0,0,0-.7,0l-1.287,1.287.7.7.994-.994a1.494,1.494,0,0,0,1.286,0l.994.994.7-.7Z" transform="translate(-366.529 -70.531)" fill="#fff"/>
    <path id="Trazado_9185" data-name="Trazado 9185" d="M385.572,79.183a.5.5,0,0,0-.146-.351l-1.287-1.288-.7.7.994.994a1.5,1.5,0,0,0,0,1.285l-.994.994.7.7,1.287-1.283a.5.5,0,0,0,0-.7h0a.5.5,0,0,1,0-.7h0A.5.5,0,0,0,385.572,79.183Z" transform="translate(-368.379 -71.434)" fill="#fff"/>
    <path id="Trazado_9186" data-name="Trazado 9186" d="M372.864,72.882h.582v-.994h-.994a.5.5,0,0,0-.5.5.5.5,0,0,1-.5.5.5.5,0,0,0-.5.5v.995h.994v-.582A1.5,1.5,0,0,0,372.864,72.882Z" transform="translate(-364.995 -69.9)" fill="#fff"/>
    <rect id="Rect치ngulo_8020" data-name="Rect치ngulo 8020" width="0.994" height="0.994" transform="translate(13.918 18.888)" fill="#fff"/>
    <path id="Trazado_9187" data-name="Trazado 9187" d="M375.619,78.026A3.981,3.981,0,0,0,371.643,82h.993a2.982,2.982,0,1,1,5.965,0h.994A3.981,3.981,0,0,0,375.619,78.026Z" transform="translate(-365.181 -71.564)" fill="#fff"/>
  </g>
  <path id="Trazado_8744" data-name="Trazado 8744" d="M473.18,31.689A2.463,2.463,0,0,0,471.911,34a2.6,2.6,0,0,0,2.681.141,6.419,6.419,0,0,0,2.2-2.824,6.412,6.412,0,0,0-3.612.374" transform="translate(-384.703 -24.834)" fill="#fff"/>
  <g id="Grupo_16660" data-name="Grupo 16660" transform="translate(31.537 6.415)">
    <path id="Trazado_8745" data-name="Trazado 8745" d="M47.863,45.864a5.8,5.8,0,1,0-.035,11.6,5.969,5.969,0,0,0,4.714-2.185v-.189L50.89,53.709H50.7a3.7,3.7,0,0,1-2.839,1.325,3.372,3.372,0,0,1,0-6.744A3.7,3.7,0,0,1,50.7,49.615h.189l1.652-1.376v-.189A5.973,5.973,0,0,0,47.863,45.864Z" transform="translate(-41.789 -44.006)" fill="#fff"/>
    <path id="Trazado_8746" data-name="Trazado 8746" d="M137.731,65.8a2.821,2.821,0,0,0-2.374,1.325V66.01H133.12v8.6h2.667V70a1.744,1.744,0,0,1,1.737-1.927,2.1,2.1,0,0,1,1.032.206l.189-.12L139.3,66.3l-.121-.206A3.61,3.61,0,0,0,137.731,65.8Z" transform="translate(-121.299 -61.365)" fill="#fff"/>
    <path id="Trazado_8747" data-name="Trazado 8747" d="M186.368,65.8a4.392,4.392,0,0,0-4.594,4.524,4.454,4.454,0,0,0,4.749,4.49,5.113,5.113,0,0,0,3.871-1.565v-.207l-1.187-1.135h-.189a3.314,3.314,0,0,1-2.374.947,2.111,2.111,0,0,1-2.288-1.961h6.383a4.123,4.123,0,0,0,.051-.688,4.423,4.423,0,0,0-1.255-3.2A4.512,4.512,0,0,0,186.368,65.8Zm-2,3.578a1.959,1.959,0,0,1,3.3-1.153,2.061,2.061,0,0,1,.533,1.153Z" transform="translate(-163.656 -61.365)" fill="#fff"/>
    <path id="Trazado_8748" data-name="Trazado 8748" d="M263.3,43.48v3.372a4.2,4.2,0,0,0-2.357-.722,4.512,4.512,0,0,0,0,9.015,3.778,3.778,0,0,0,2.77-1.17v.963h2.237V43.326l-.206-.121Zm-1.944,9.393a2.241,2.241,0,0,1,0-4.473,2.242,2.242,0,0,1,0,4.473Z" transform="translate(-228.816 -41.691)" fill="#fff"/>
    <path id="Trazado_8749" data-name="Trazado 8749" d="M341.874,34.794a1.643,1.643,0,1,0-1.635-1.634A1.648,1.648,0,0,0,341.874,34.794Z" transform="translate(-301.611 -31.508)" fill="#fff"/>
    <rect id="Rect치ngulo_7875" data-name="Rect치ngulo 7875" width="2.65" height="8.602" transform="translate(38.938 4.645)" fill="#fff"/>
  </g>
  <path id="Trazado_8750" data-name="Trazado 8750" d="M374.939,51.662A5.81,5.81,0,0,1,385.33,48.1v.1l-.809.619h-.1a4.662,4.662,0,1,0,0,5.678h.1l.809.619v.1a5.81,5.81,0,0,1-10.391-3.561Z" transform="translate(-300.282 -37.59)" fill="#fff"/>
  <path id="Trazado_8751" data-name="Trazado 8751" d="M468.569,69.313v5.3H467.4V73.46a3.951,3.951,0,0,1-2.977,1.359c-2,0-3.337-1.118-3.337-2.8,0-1.721,1.462-2.873,3.647-2.873a5.861,5.861,0,0,1,2.667.654v-.74a2.184,2.184,0,0,0-2.443-2.15,4.454,4.454,0,0,0-2.7.963h-.1l-.533-.774v-.1a5.362,5.362,0,0,1,3.337-1.187C467.313,65.8,468.569,67.094,468.569,69.313Zm-1.17,2.133v-.533a6.03,6.03,0,0,0-2.649-.706c-1.462,0-2.426.74-2.426,1.841,0,1,.877,1.669,2.2,1.669C465.937,73.718,467.4,72.858,467.4,71.447Z" transform="translate(-375.278 -54.95)" fill="#fff"/>
  <path id="Trazado_8752" data-name="Trazado 8752" d="M536.592,43.36l1.118-.155.086.069V54.939h-1.2Z" transform="translate(-441.013 -35.275)" fill="#fff"/>
  <path id="Trazado_8753" data-name="Trazado 8753" d="M561.716,41.146a1,1,0,1,1,1,1A1,1,0,0,1,561.716,41.146Zm.4,2.529h1.2v8.6h-1.2Z" transform="translate(-462.885 -32.614)" fill="#fff"/>
  <path id="Trazado_8754" data-name="Trazado 8754" d="M596.363,43.274V54.939h-1.2v-1.17a4.159,4.159,0,0,1-3.165,1.376,4.51,4.51,0,0,1,0-9.015,4.244,4.244,0,0,1,3.165,1.342V43.36l1.119-.155ZM595.3,50.637a3.1,3.1,0,0,0-3.183-3.406,3.411,3.411,0,0,0,0,6.813A3.1,3.1,0,0,0,595.3,50.637Z" transform="translate(-485.454 -35.275)" fill="#fff"/>
  <path id="Trazado_8755" data-name="Trazado 8755" d="M677.056,43.274V54.939h-1.2v-1.17a4.161,4.161,0,0,1-3.166,1.376,4.51,4.51,0,0,1,0-9.015,4.247,4.247,0,0,1,3.166,1.342V43.36l1.118-.155Zm-1.067,7.363a3.1,3.1,0,0,0-3.183-3.406,3.411,3.411,0,0,0,0,6.813A3.1,3.1,0,0,0,675.989,50.637Z" transform="translate(-555.703 -35.275)" fill="#fff"/>
  <path id="Trazado_8756" data-name="Trazado 8756" d="M755.452,69.313v5.3h-1.17V73.46a3.951,3.951,0,0,1-2.977,1.359c-2,0-3.337-1.118-3.337-2.8,0-1.721,1.462-2.873,3.647-2.873a5.861,5.861,0,0,1,2.667.654v-.74a2.184,2.184,0,0,0-2.443-2.15,4.454,4.454,0,0,0-2.7.963h-.1l-.533-.774v-.1a5.363,5.363,0,0,1,3.337-1.187C754.2,65.8,755.452,67.094,755.452,69.313Zm-1.17,2.133v-.533a6.03,6.03,0,0,0-2.649-.706c-1.462,0-2.426.74-2.426,1.841,0,1,.877,1.669,2.2,1.669C752.82,73.718,754.282,72.858,754.282,71.447Z" transform="translate(-625.031 -54.95)" fill="#fff"/>
</svg>
